<svg xmlns="http://www.w3.org/2000/svg" width="800" height="800" viewBox="0 0 800 800">
  <defs>
    <radialGradient id="bg" cx="50%" cy="45%" r="60%">
      <stop offset="0%" stop-color="#1a0400"/>
      <stop offset="55%" stop-color="#0a0005"/>
      <stop offset="100%" stop-color="#000000"/>
    </radialGradient>
    <radialGradient id="glow1" cx="50%" cy="50%" r="50%">
      <stop offset="0%" stop-color="#ff2800" stop-opacity="0.22"/>
      <stop offset="100%" stop-color="#ff2800" stop-opacity="0"/>
    </radialGradient>
    <linearGradient id="carGrad" x1="0%" y1="0%" x2="0%" y2="100%">
      <stop offset="0%" stop-color="#ff3300"/>
      <stop offset="100%" stop-color="#880a00"/>
    </linearGradient>
    <linearGradient id="logoGrad" x1="0%" y1="0%" x2="0%" y2="100%">
      <stop offset="0%" stop-color="#ff9966"/>
      <stop offset="35%" stop-color="#ff3300"/>
      <stop offset="100%" stop-color="#991100"/>
    </linearGradient>
    <linearGradient id="subGrad" x1="0%" y1="0%" x2="100%" y2="0%">
      <stop offset="0%" stop-color="#ffffff" stop-opacity="0"/>
      <stop offset="20%" stop-color="#ffffff" stop-opacity="0.7"/>
      <stop offset="80%" stop-color="#ffffff" stop-opacity="0.7"/>
      <stop offset="100%" stop-color="#ffffff" stop-opacity="0"/>
    </linearGradient>
    <linearGradient id="lineGrad" x1="0%" y1="0%" x2="100%" y2="0%">
      <stop offset="0%" stop-color="#ff3300" stop-opacity="0"/>
      <stop offset="50%" stop-color="#ff3300" stop-opacity="1"/>
      <stop offset="100%" stop-color="#ff3300" stop-opacity="0"/>
    </linearGradient>
    <filter id="glow">
      <feGaussianBlur stdDeviation="3" result="blur"/>
      <feMerge><feMergeNode in="blur"/><feMergeNode in="SourceGraphic"/></feMerge>
    </filter>
    <filter id="softglow">
      <feGaussianBlur stdDeviation="8" result="blur"/>
      <feMerge><feMergeNode in="blur"/><feMergeNode in="SourceGraphic"/></feMerge>
    </filter>
    <filter id="textglow">
      <feGaussianBlur stdDeviation="6" result="blur"/>
      <feMerge><feMergeNode in="blur"/><feMergeNode in="SourceGraphic"/></feMerge>
    </filter>
    <clipPath id="oval">
      <ellipse cx="400" cy="400" rx="370" ry="370"/>
    </clipPath>
  </defs>

  <!-- Background -->
  <rect width="800" height="800" fill="url(#bg)"/>

  <!-- Outer ring -->
  <circle cx="400" cy="400" r="370" fill="none" stroke="#ff2200" stroke-width="2" opacity="0.4"/>
  <circle cx="400" cy="400" r="365" fill="none" stroke="#ff6600" stroke-width="0.5" opacity="0.2"/>

  <!-- Subtle glow core -->
  <ellipse cx="400" cy="400" rx="320" ry="280" fill="url(#glow1)"/>

  <!-- Checkered flag background pattern (subtle) -->
  <g clip-path="url(#oval)" opacity="0.055">
    <rect x="30" y="30" width="20" height="20" fill="#ffffff"/>
    <rect x="70" y="30" width="20" height="20" fill="#ffffff"/>
    <rect x="110" y="30" width="20" height="20" fill="#ffffff"/>
    <rect x="150" y="30" width="20" height="20" fill="#ffffff"/>
    <rect x="190" y="30" width="20" height="20" fill="#ffffff"/>
    <rect x="230" y="30" width="20" height="20" fill="#ffffff"/>
    <rect x="270" y="30" width="20" height="20" fill="#ffffff"/>
    <rect x="310" y="30" width="20" height="20" fill="#ffffff"/>
    <rect x="350" y="30" width="20" height="20" fill="#ffffff"/>
    <rect x="390" y="30" width="20" height="20" fill="#ffffff"/>
    <rect x="430" y="30" width="20" height="20" fill="#ffffff"/>
    <rect x="470" y="30" width="20" height="20" fill="#ffffff"/>
    <rect x="510" y="30" width="20" height="20" fill="#ffffff"/>
    <rect x="550" y="30" width="20" height="20" fill="#ffffff"/>
    <rect x="590" y="30" width="20" height="20" fill="#ffffff"/>
    <rect x="630" y="30" width="20" height="20" fill="#ffffff"/>
    <rect x="670" y="30" width="20" height="20" fill="#ffffff"/>
    <rect x="710" y="30" width="20" height="20" fill="#ffffff"/>
    <rect x="750" y="30" width="20" height="20" fill="#ffffff"/>
    <rect x="50" y="50" width="20" height="20" fill="#ffffff"/>
    <rect x="90" y="50" width="20" height="20" fill="#ffffff"/>
    <rect x="130" y="50" width="20" height="20" fill="#ffffff"/>
    <rect x="170" y="50" width="20" height="20" fill="#ffffff"/>
    <rect x="210" y="50" width="20" height="20" fill="#ffffff"/>
    <rect x="250" y="50" width="20" height="20" fill="#ffffff"/>
    <rect x="290" y="50" width="20" height="20" fill="#ffffff"/>
    <rect x="330" y="50" width="20" height="20" fill="#ffffff"/>
    <rect x="370" y="50" width="20" height="20" fill="#ffffff"/>
    <rect x="410" y="50" width="20" height="20" fill="#ffffff"/>
    <rect x="450" y="50" width="20" height="20" fill="#ffffff"/>
    <rect x="490" y="50" width="20" height="20" fill="#ffffff"/>
    <rect x="530" y="50" width="20" height="20" fill="#ffffff"/>
    <rect x="570" y="50" width="20" height="20" fill="#ffffff"/>
    <rect x="610" y="50" width="20" height="20" fill="#ffffff"/>
    <rect x="650" y="50" width="20" height="20" fill="#ffffff"/>
    <rect x="690" y="50" width="20" height="20" fill="#ffffff"/>
    <rect x="730" y="50" width="20" height="20" fill="#ffffff"/>
    <rect x="30" y="70" width="20" height="20" fill="#ffffff"/>
    <rect x="70" y="70" width="20" height="20" fill="#ffffff"/>
    <rect x="110" y="70" width="20" height="20" fill="#ffffff"/>
    <rect x="150" y="70" width="20" height="20" fill="#ffffff"/>
    <rect x="190" y="70" width="20" height="20" fill="#ffffff"/>
    <rect x="230" y="70" width="20" height="20" fill="#ffffff"/>
    <rect x="270" y="70" width="20" height="20" fill="#ffffff"/>
    <rect x="310" y="70" width="20" height="20" fill="#ffffff"/>
    <rect x="350" y="70" width="20" height="20" fill="#ffffff"/>
    <rect x="390" y="70" width="20" height="20" fill="#ffffff"/>
    <rect x="430" y="70" width="20" height="20" fill="#ffffff"/>
    <rect x="470" y="70" width="20" height="20" fill="#ffffff"/>
    <rect x="510" y="70" width="20" height="20" fill="#ffffff"/>
    <rect x="550" y="70" width="20" height="20" fill="#ffffff"/>
    <rect x="590" y="70" width="20" height="20" fill="#ffffff"/>
    <rect x="630" y="70" width="20" height="20" fill="#ffffff"/>
    <rect x="670" y="70" width="20" height="20" fill="#ffffff"/>
    <rect x="710" y="70" width="20" height="20" fill="#ffffff"/>
    <rect x="750" y="70" width="20" height="20" fill="#ffffff"/>
    <rect x="50" y="90" width="20" height="20" fill="#ffffff"/>
    <rect x="90" y="90" width="20" height="20" fill="#ffffff"/>
    <rect x="130" y="90" width="20" height="20" fill="#ffffff"/>
    <rect x="170" y="90" width="20" height="20" fill="#ffffff"/>
    <rect x="210" y="90" width="20" height="20" fill="#ffffff"/>
    <rect x="250" y="90" width="20" height="20" fill="#ffffff"/>
    <rect x="290" y="90" width="20" height="20" fill="#ffffff"/>
    <rect x="330" y="90" width="20" height="20" fill="#ffffff"/>
    <rect x="370" y="90" width="20" height="20" fill="#ffffff"/>
    <rect x="410" y="90" width="20" height="20" fill="#ffffff"/>
    <rect x="450" y="90" width="20" height="20" fill="#ffffff"/>
    <rect x="490" y="90" width="20" height="20" fill="#ffffff"/>
    <rect x="530" y="90" width="20" height="20" fill="#ffffff"/>
    <rect x="570" y="90" width="20" height="20" fill="#ffffff"/>
    <rect x="610" y="90" width="20" height="20" fill="#ffffff"/>
    <rect x="650" y="90" width="20" height="20" fill="#ffffff"/>
    <rect x="690" y="90" width="20" height="20" fill="#ffffff"/>
    <rect x="730" y="90" width="20" height="20" fill="#ffffff"/>

    <!-- Bottom checkers -->
    <rect x="30" y="700" width="20" height="20" fill="#ffffff"/>
    <rect x="70" y="700" width="20" height="20" fill="#ffffff"/>
    <rect x="110" y="700" width="20" height="20" fill="#ffffff"/>
    <rect x="150" y="700" width="20" height="20" fill="#ffffff"/>
    <rect x="190" y="700" width="20" height="20" fill="#ffffff"/>
    <rect x="230" y="700" width="20" height="20" fill="#ffffff"/>
    <rect x="270" y="700" width="20" height="20" fill="#ffffff"/>
    <rect x="310" y="700" width="20" height="20" fill="#ffffff"/>
    <rect x="350" y="700" width="20" height="20" fill="#ffffff"/>
    <rect x="390" y="700" width="20" height="20" fill="#ffffff"/>
    <rect x="430" y="700" width="20" height="20" fill="#ffffff"/>
    <rect x="470" y="700" width="20" height="20" fill="#ffffff"/>
    <rect x="510" y="700" width="20" height="20" fill="#ffffff"/>
    <rect x="550" y="700" width="20" height="20" fill="#ffffff"/>
    <rect x="590" y="700" width="20" height="20" fill="#ffffff"/>
    <rect x="630" y="700" width="20" height="20" fill="#ffffff"/>
    <rect x="670" y="700" width="20" height="20" fill="#ffffff"/>
    <rect x="710" y="700" width="20" height="20" fill="#ffffff"/>
    <rect x="750" y="700" width="20" height="20" fill="#ffffff"/>
    <rect x="50" y="720" width="20" height="20" fill="#ffffff"/>
    <rect x="90" y="720" width="20" height="20" fill="#ffffff"/>
    <rect x="130" y="720" width="20" height="20" fill="#ffffff"/>
    <rect x="170" y="720" width="20" height="20" fill="#ffffff"/>
    <rect x="210" y="720" width="20" height="20" fill="#ffffff"/>
    <rect x="250" y="720" width="20" height="20" fill="#ffffff"/>
    <rect x="290" y="720" width="20" height="20" fill="#ffffff"/>
    <rect x="330" y="720" width="20" height="20" fill="#ffffff"/>
    <rect x="370" y="720" width="20" height="20" fill="#ffffff"/>
    <rect x="410" y="720" width="20" height="20" fill="#ffffff"/>
    <rect x="450" y="720" width="20" height="20" fill="#ffffff"/>
    <rect x="490" y="720" width="20" height="20" fill="#ffffff"/>
    <rect x="530" y="720" width="20" height="20" fill="#ffffff"/>
    <rect x="570" y="720" width="20" height="20" fill="#ffffff"/>
    <rect x="610" y="720" width="20" height="20" fill="#ffffff"/>
    <rect x="650" y="720" width="20" height="20" fill="#ffffff"/>
    <rect x="690" y="720" width="20" height="20" fill="#ffffff"/>
    <rect x="730" y="720" width="20" height="20" fill="#ffffff"/>
    <rect x="30" y="740" width="20" height="20" fill="#ffffff"/>
    <rect x="70" y="740" width="20" height="20" fill="#ffffff"/>
    <rect x="110" y="740" width="20" height="20" fill="#ffffff"/>
    <rect x="150" y="740" width="20" height="20" fill="#ffffff"/>
    <rect x="190" y="740" width="20" height="20" fill="#ffffff"/>
    <rect x="230" y="740" width="20" height="20" fill="#ffffff"/>
    <rect x="270" y="740" width="20" height="20" fill="#ffffff"/>
    <rect x="310" y="740" width="20" height="20" fill="#ffffff"/>
    <rect x="350" y="740" width="20" height="20" fill="#ffffff"/>
    <rect x="390" y="740" width="20" height="20" fill="#ffffff"/>
    <rect x="430" y="740" width="20" height="20" fill="#ffffff"/>
    <rect x="470" y="740" width="20" height="20" fill="#ffffff"/>
    <rect x="510" y="740" width="20" height="20" fill="#ffffff"/>
    <rect x="550" y="740" width="20" height="20" fill="#ffffff"/>
    <rect x="590" y="740" width="20" height="20" fill="#ffffff"/>
    <rect x="630" y="740" width="20" height="20" fill="#ffffff"/>
    <rect x="670" y="740" width="20" height="20" fill="#ffffff"/>
    <rect x="710" y="740" width="20" height="20" fill="#ffffff"/>
    <rect x="750" y="740" width="20" height="20" fill="#ffffff"/>
    <rect x="50" y="760" width="20" height="20" fill="#ffffff"/>
    <rect x="90" y="760" width="20" height="20" fill="#ffffff"/>
    <rect x="130" y="760" width="20" height="20" fill="#ffffff"/>
    <rect x="170" y="760" width="20" height="20" fill="#ffffff"/>
    <rect x="210" y="760" width="20" height="20" fill="#ffffff"/>
    <rect x="250" y="760" width="20" height="20" fill="#ffffff"/>
    <rect x="290" y="760" width="20" height="20" fill="#ffffff"/>
    <rect x="330" y="760" width="20" height="20" fill="#ffffff"/>
    <rect x="370" y="760" width="20" height="20" fill="#ffffff"/>
    <rect x="410" y="760" width="20" height="20" fill="#ffffff"/>
    <rect x="450" y="760" width="20" height="20" fill="#ffffff"/>
    <rect x="490" y="760" width="20" height="20" fill="#ffffff"/>
    <rect x="530" y="760" width="20" height="20" fill="#ffffff"/>
    <rect x="570" y="760" width="20" height="20" fill="#ffffff"/>
    <rect x="610" y="760" width="20" height="20" fill="#ffffff"/>
    <rect x="650" y="760" width="20" height="20" fill="#ffffff"/>
    <rect x="690" y="760" width="20" height="20" fill="#ffffff"/>
    <rect x="730" y="760" width="20" height="20" fill="#ffffff"/>
  </g>

  <!-- Speed lines (motion blur effect) -->
  <g opacity="0.12" filter="url(#softglow)">
    <line x1="60" y1="390" x2="240" y2="400" stroke="#ff4400" stroke-width="1.5"/>
    <line x1="40" y1="406" x2="230" y2="412" stroke="#ff4400" stroke-width="0.8"/>
    <line x1="70" y1="374" x2="220" y2="386" stroke="#ff6600" stroke-width="0.6"/>
    <line x1="560" y1="390" x2="748" y2="400" stroke="#ff4400" stroke-width="1.5"/>
    <line x1="575" y1="406" x2="762" y2="412" stroke="#ff4400" stroke-width="0.8"/>
    <line x1="580" y1="374" x2="740" y2="386" stroke="#ff6600" stroke-width="0.6"/>
  </g>

  <!-- F1 Car silhouette (top-down view, centered) -->
  <g transform="translate(400, 310)" filter="url(#glow)">
    <!-- Car body -->
    <ellipse cx="0" cy="0" rx="44" ry="88" fill="url(#carGrad)"/>
    <!-- Nose cone -->
    <path d="M -12 -88 L 0 -120 L 12 -88 Z" fill="#cc1100"/>
    <!-- Rear diffuser -->
    <path d="M -44 68 L -54 88 L 54 88 L 44 68 Z" fill="#770800"/>
    <!-- Sidepods -->
    <rect x="-68" y="-32" width="24" height="56" rx="6" fill="#cc1100"/>
    <rect x="44" y="-32" width="24" height="56" rx="6" fill="#cc1100"/>
    <!-- Cockpit -->
    <ellipse cx="0" cy="-14" rx="16" ry="22" fill="#0a0a0a"/>
    <!-- Halo bar -->
    <rect x="-18" y="-28" width="36" height="5" rx="2" fill="#888"/>
    <!-- Front wing -->
    <rect x="-74" y="-102" width="148" height="10" rx="3" fill="#aa0e00"/>
    <rect x="-74" y="-99" width="10" height="18" rx="2" fill="#aa0e00"/>
    <rect x="64" y="-99" width="10" height="18" rx="2" fill="#aa0e00"/>
    <!-- Rear wing -->
    <rect x="-62" y="74" width="124" height="11" rx="3" fill="#aa0e00"/>
    <rect x="-62" y="71" width="10" height="20" rx="2" fill="#880a00"/>
    <rect x="52" y="71" width="10" height="20" rx="2" fill="#880a00"/>
    <!-- Front wheels -->
    <ellipse cx="-78" cy="-62" rx="16" ry="20" fill="#111"/>
    <ellipse cx="78" cy="-62" rx="16" ry="20" fill="#111"/>
    <ellipse cx="-78" cy="-62" rx="9" ry="11" fill="#ff2200" opacity="0.7"/>
    <ellipse cx="78" cy="-62" rx="9" ry="11" fill="#ff2200" opacity="0.7"/>
    <!-- Rear wheels -->
    <ellipse cx="-82" cy="52" rx="20" ry="25" fill="#111"/>
    <ellipse cx="82" cy="52" rx="20" ry="25" fill="#111"/>
    <ellipse cx="-82" cy="52" rx="11" ry="14" fill="#ff2200" opacity="0.7"/>
    <ellipse cx="82" cy="52" rx="11" ry="14" fill="#ff2200" opacity="0.7"/>
    <!-- Wheel axles -->
    <line x1="-44" y1="-62" x2="-62" y2="-62" stroke="#444" stroke-width="5"/>
    <line x1="44" y1="-62" x2="62" y2="-62" stroke="#444" stroke-width="5"/>
    <line x1="-44" y1="52" x2="-62" y2="52" stroke="#444" stroke-width="7"/>
    <line x1="44" y1="52" x2="62" y2="52" stroke="#444" stroke-width="7"/>
  </g>

  <!-- Car glow ring -->
  <ellipse cx="400" cy="310" rx="100" ry="140" fill="none" stroke="#ff3300" stroke-width="1" opacity="0.3"/>

  <!-- Divider lines -->
  <rect x="100" y="470" width="600" height="2" rx="1" fill="url(#lineGrad)"/>
  <rect x="160" y="476" width="480" height="0.5" rx="0.5" fill="url(#lineGrad)" opacity="0.4"/>

  <!-- COOKED -->
  <text
    x="400" y="570"
    font-family="'Orbitron', 'Arial Black', sans-serif"
    font-weight="900"
    font-size="96"
    letter-spacing="-2"
    text-anchor="middle"
    fill="url(#logoGrad)"
    filter="url(#textglow)"
  >COOKED</text>

  <!-- RACING -->
  <text
    x="400" y="648"
    font-family="'Orbitron', 'Arial Black', sans-serif"
    font-weight="900"
    font-size="76"
    letter-spacing="18"
    text-anchor="middle"
    fill="#ffffff"
    opacity="0.92"
  >RACING</text>

  <!-- Subtitle line -->
  <text
    x="400" y="694"
    font-family="'Orbitron', 'Courier New', monospace"
    font-weight="400"
    font-size="13"
    letter-spacing="7"
    text-anchor="middle"
    fill="url(#subGrad)"
  >F1 RACING SIMULATOR</text>

  <!-- Bottom line -->
  <rect x="100" y="710" width="600" height="1" rx="0.5" fill="url(#lineGrad)" opacity="0.5"/>

  <!-- Lightning bolt accent -->
  <text x="142" y="580"
    font-family="sans-serif"
    font-size="52"
    text-anchor="middle"
    fill="#ff4400"
    opacity="0.85"
    filter="url(#glow)"
  >⚡</text>
  <text x="660" y="580"
    font-family="sans-serif"
    font-size="52"
    text-anchor="middle"
    fill="#ff4400"
    opacity="0.85"
    filter="url(#glow)"
  >⚡</text>

  <!-- Corner accent dots -->
  <circle cx="120" cy="120" r="3" fill="#ff2200" opacity="0.5"/>
  <circle cx="680" cy="120" r="3" fill="#ff2200" opacity="0.5"/>
  <circle cx="120" cy="680" r="3" fill="#ff2200" opacity="0.5"/>
  <circle cx="680" cy="680" r="3" fill="#ff2200" opacity="0.5"/>

  <!-- Outer glow ring -->
  <circle cx="400" cy="400" r="375" fill="none" stroke="#ff1100" stroke-width="0.5" opacity="0.15"/>

  <style>
    @import url('https://fonts.googleapis.com/css2?family=Orbitron:wght@400;700;900&amp;display=swap');
  </style>
</svg>
